STARTFONT 2.1
COMMENT $XConsortium: lutBS14.bdf,v 1.9 94/04/02 16:11:15 gildea Exp $
COMMENT  (c) Copyright Bigelow & Holmes 1986, 1985. Lucida is a registered
COMMENT  trademark of Bigelow & Holmes. See LEGAL NOTICE file for terms 
COMMENT  of the license. 
COMMENT GRID 0014 0014 0200 0200
FONT -RFX-SereneTypewriter-Bold-R-Normal-Sans-14-140-75-75-M-90-iso10646-0400
SIZE 14 72 72
FONTBOUNDINGBOX 9 15 0 -2
STARTPROPERTIES 24
FONTNAME_REGISTRY ""
FOUNDRY "RFX"
FAMILY_NAME "SereneTypewriter"
WEIGHT_NAME "Bold"
SLANT "R"
SETWIDTH_NAME "Normal"
ADD_STYLE_NAME "Sans"
PIXEL_SIZE 14
POINT_SIZE 140
RESOLUTION_X 75
RESOLUTION_Y 75
SPACING "M"
AVERAGE_WIDTH 90
CHARSET_REGISTRY "iso10646"
CHARSET_ENCODING "0400"
FONT_ASCENT 13
FONT_DESCENT 2
DEFAULT_CHAR 0
COPYRIGHT "Copyright Bigelow & Holmes 1986, 1985."
FACE_NAME "Lucida Sans Typewriter Bold"
COPYRIGHT2 "Cyrillic and line drawing glyphs copyright 2000 Dmitry Yu. Bolkhovityanov, bolkhov@inp.nsk.su"
SOURCEDATE "Thu Jun 15 13:49:31 2000"
PKGVERSION "1.1"
ASSEMBLER "cvtbdf.pl (Linux)"
ENDPROPERTIES
CHARS 339
STARTCHAR null
ENCODING 0
SWIDTH 602 0
DWIDTH 9 0
BBX 5 10 2 0
BITMAP
F8
F8
F8
F8
F8
F8
F8
F8
F8
F8
ENDCHAR
STARTCHAR ctrlA
ENCODING 1
SWIDTH 602 0
DWIDTH 9 0
BBX 7 9 1 1
BITMAP
40
A0
00
08
1C
14
26
3E
26
ENDCHAR
STARTCHAR ctrlB
ENCODING 2
SWIDTH 602 0
DWIDTH 9 0
BBX 7 9 1 1
BITMAP
40
A0
00
3C
36
3C
34
36
3C
ENDCHAR
STARTCHAR ctrlC
ENCODING 3
SWIDTH 602 0
DWIDTH 9 0
BBX 7 9 1 1
BITMAP
40
A0
00
0C
1A
30
30
1A
0C
ENDCHAR
STARTCHAR ctrlD
ENCODING 4
SWIDTH 602 0
DWIDTH 9 0
BBX 7 9 1 1
BITMAP
40
A0
00
38
34
36
36
34
38
ENDCHAR
STARTCHAR ctrlE
ENCODING 5
SWIDTH 602 0
DWIDTH 9 0
BBX 7 9 1 1
BITMAP
40
A0
00
3E
30
3C
30
30
3E
ENDCHAR
STARTCHAR ctrlF
ENCODING 6
SWIDTH 602 0
DWIDTH 9 0
BBX 7 9 1 1
BITMAP
40
A0
00
3E
30
30
3E
30
30
ENDCHAR
STARTCHAR ctrlG
ENCODING 7
SWIDTH 602 0
DWIDTH 9 0
BBX 7 9 1 1
BITMAP
40
A0
00
0C
1A
30
32
1A
0E
ENDCHAR
STARTCHAR ctrlH
ENCODING 8
SWIDTH 602 0
DWIDTH 9 0
BBX 7 9 1 1
BITMAP
40
A0
00
36
36
3E
36
36
36
ENDCHAR
STARTCHAR ctrlI
ENCODING 9
SWIDTH 602 0
DWIDTH 9 0
BBX 6 9 1 1
BITMAP
40
A0
00
3C
18
18
18
18
3C
ENDCHAR
STARTCHAR ctrlJ
ENCODING 10
SWIDTH 602 0
DWIDTH 9 0
BBX 6 9 1 1
BITMAP
40
A0
00
1C
0C
0C
0C
0C
38
ENDCHAR
STARTCHAR ldcornsqlr
ENCODING 11
SWIDTH 602 0
DWIDTH 9 0
BBX 6 8 0 5
BITMAP
0C
0C
0C
0C
0C
0C
0C
FC
ENDCHAR
STARTCHAR ldcornsqur
ENCODING 12
SWIDTH 602 0
DWIDTH 9 0
BBX 6 8 0 -2
BITMAP
FC
0C
0C
0C
0C
0C
0C
0C
ENDCHAR
STARTCHAR ldcornsqul
ENCODING 13
SWIDTH 602 0
DWIDTH 9 0
BBX 5 8 4 -2
BITMAP
F8
C0
C0
C0
C0
C0
C0
C0
ENDCHAR
STARTCHAR ldcornsqll
ENCODING 14
SWIDTH 602 0
DWIDTH 9 0
BBX 5 8 4 5
BITMAP
C0
C0
C0
C0
C0
C0
C0
F8
ENDCHAR
STARTCHAR ldcross
ENCODING 15
SWIDTH 602 0
DWIDTH 9 0
BBX 9 15 0 -2
BITMAP
0C00
0C00
0C00
0C00
0C00
0C00
0C00
FF80
0C00
0C00
0C00
0C00
0C00
0C00
0C00
ENDCHAR
STARTCHAR ctrlP
ENCODING 16
SWIDTH 602 0
DWIDTH 9 0
BBX 7 9 1 1
BITMAP
40
A0
00
3C
36
34
38
30
30
ENDCHAR
STARTCHAR ctrlQ
ENCODING 17
SWIDTH 602 0
DWIDTH 9 0
BBX 7 10 1 0
BITMAP
40
A0
00
08
14
36
36
14
0C
06
ENDCHAR
STARTCHAR ldhorizontal
ENCODING 18
SWIDTH 602 0
DWIDTH 9 0
BBX 9 1 0 5
BITMAP
FF80
ENDCHAR
STARTCHAR ctrlS
ENCODING 19
SWIDTH 602 0
DWIDTH 9 0
BBX 7 9 1 1
BITMAP
40
A0
00
3C
36
34
38
34
36
ENDCHAR
STARTCHAR ctrlT
ENCODING 20
SWIDTH 602 0
DWIDTH 9 0
BBX 7 9 1 1
BITMAP
40
A0
00
1C
32
18
0C
26
1C
ENDCHAR
STARTCHAR ldteelft
ENCODING 21
SWIDTH 602 0
DWIDTH 9 0
BBX 5 15 4 -2
BITMAP
C0
C0
C0
C0
C0
C0
C0
F8
C0
C0
C0
C0
C0
C0
C0
ENDCHAR
STARTCHAR ldteert
ENCODING 22
SWIDTH 602 0
DWIDTH 9 0
BBX 6 15 0 -2
BITMAP
0C
0C
0C
0C
0C
0C
0C
FC
0C
0C
0C
0C
0C
0C
0C
ENDCHAR
STARTCHAR ldteebt
ENCODING 23
SWIDTH 602 0
DWIDTH 9 0
BBX 9 8 0 5
BITMAP
0C00
0C00
0C00
0C00
0C00
0C00
0C00
FF80
ENDCHAR
STARTCHAR ldteetp
ENCODING 24
SWIDTH 602 0
DWIDTH 9 0
BBX 9 8 0 -2
BITMAP
FF80
0C00
0C00
0C00
0C00
0C00
0C00
0C00
ENDCHAR
STARTCHAR ldvertical
ENCODING 25
SWIDTH 602 0
DWIDTH 9 0
BBX 2 15 4 -2
BITMAP
C0
C0
C0
C0
C0
C0
C0
C0
C0
C0
C0
C0
C0
C0
C0
ENDCHAR
STARTCHAR ctrlZ
ENCODING 26
SWIDTH 602 0
DWIDTH 9 0
BBX 7 9 1 1
BITMAP
40
A0
00
3E
06
0C
18
30
3E
ENDCHAR
STARTCHAR ctrlBRL
ENCODING 27
SWIDTH 602 0
DWIDTH 9 0
BBX 6 9 1 1
BITMAP
40
A0
00
1C
18
18
18
18
1C
ENDCHAR
STARTCHAR ctrlBSLASH
ENCODING 28
SWIDTH 602 0
DWIDTH 9 0
BBX 7 9 1 1
BITMAP
40
A0
00
30
18
18
0C
0C
06
ENDCHAR
STARTCHAR ctrlBRR
ENCODING 29
SWIDTH 602 0
DWIDTH 9 0
BBX 6 9 1 1
BITMAP
40
A0
00
1C
0C
0C
0C
0C
1C
ENDCHAR
STARTCHAR ctrlCARET
ENCODING 30
SWIDTH 602 0
DWIDTH 9 0
BBX 7 7 1 3
BITMAP
40
A0
00
08
1C
36
22
ENDCHAR
STARTCHAR ctrlUND
ENCODING 31
SWIDTH 602 0
DWIDTH 9 0
BBX 7 9 1 1
BITMAP
40
A0
00
00
00
00
00
00
3E
ENDCHAR
STARTCHAR space
ENCODING 32
SWIDTH 602 0
DWIDTH 9 0
BBX 0 0 0 0
BITMAP
ENDCHAR
STARTCHAR exclam
ENCODING 33
SWIDTH 602 0
DWIDTH 9 0
BBX 2 10 3 0
BITMAP
C0
C0
C0
C0
C0
C0
80
00
C0
C0
ENDCHAR
STARTCHAR quotedbl
ENCODING 34
SWIDTH 602 0
DWIDTH 9 0
BBX 4 4 3 7
BITMAP
90
90
90
90
ENDCHAR
STARTCHAR numbersign
ENCODING 35
SWIDTH 602 0
DWIDTH 9 0
BBX 9 10 0 0
BITMAP
1B00
1B00
1B00
FF80
3600
3600
FF80
6C00
6C00
6C00
ENDCHAR
STARTCHAR dollar
ENCODING 36
SWIDTH 602 0
DWIDTH 9 0
BBX 7 12 1 -1
BITMAP
08
7C
CA
C8
E8
78
3C
2E
26
A6
7C
20
ENDCHAR
STARTCHAR percent
ENCODING 37
SWIDTH 602 0
DWIDTH 9 0
BBX 8 10 1 0
BITMAP
70
D9
DA
74
08
10
2E
5B
9B
0E
ENDCHAR
STARTCHAR ampersand
ENCODING 38
SWIDTH 602 0
DWIDTH 9 0
BBX 8 10 1 0
BITMAP
38
6C
6C
68
33
5B
CA
CC
EE
73
ENDCHAR
STARTCHAR quotesingle
ENCODING 39
SWIDTH 602 0
DWIDTH 9 0
BBX 1 4 4 7
BITMAP
80
80
80
80
ENDCHAR
STARTCHAR parenleft
ENCODING 40
SWIDTH 602 0
DWIDTH 9 0
BBX 5 12 2 -1
BITMAP
18
30
60
60
C0
C0
C0
C0
60
60
30
18
ENDCHAR
STARTCHAR parenright
ENCODING 41
SWIDTH 602 0
DWIDTH 9 0
BBX 5 12 2 -1
BITMAP
C0
60
30
30
18
18
18
18
30
30
60
C0
ENDCHAR
STARTCHAR asterisk
ENCODING 42
SWIDTH 602 0
DWIDTH 9 0
BBX 5 5 2 5
BITMAP
20
A8
70
A8
20
ENDCHAR
STARTCHAR plus
ENCODING 43
SWIDTH 602 0
DWIDTH 9 0
BBX 7 7 1 1
BITMAP
10
10
10
FE
10
10
10
ENDCHAR
STARTCHAR comma
ENCODING 44
SWIDTH 602 0
DWIDTH 9 0
BBX 3 4 3 -2
BITMAP
E0
E0
20
C0
ENDCHAR
STARTCHAR minus
ENCODING 45
SWIDTH 602 0
DWIDTH 9 0
BBX 7 1 1 4
BITMAP
FE
ENDCHAR
STARTCHAR period
ENCODING 46
SWIDTH 602 0
DWIDTH 9 0
BBX 3 2 3 0
BITMAP
E0
E0
ENDCHAR
STARTCHAR slash
ENCODING 47
SWIDTH 602 0
DWIDTH 9 0
BBX 7 12 1 -1
BITMAP
06
06
0C
0C
18
18
30
30
60
60
C0
C0
ENDCHAR
STARTCHAR zero
ENCODING 48
SWIDTH 602 0
DWIDTH 9 0
BBX 7 10 1 0
BITMAP
38
6C
C6
C6
C6
C6
C6
C6
6C
38
ENDCHAR
STARTCHAR one
ENCODING 49
SWIDTH 602 0
DWIDTH 9 0
BBX 4 10 2 0
BITMAP
30
70
B0
30
30
30
30
30
30
30
ENDCHAR
STARTCHAR two
ENCODING 50
SWIDTH 602 0
DWIDTH 9 0
BBX 7 10 1 0
BITMAP
7C
CE
06
06
0C
18
30
60
FE
FE
ENDCHAR
STARTCHAR three
ENCODING 51
SWIDTH 602 0
DWIDTH 9 0
BBX 7 10 1 0
BITMAP
7C
CE
06
0C
38
0C
06
06
CE
7C
ENDCHAR
STARTCHAR four
ENCODING 52
SWIDTH 602 0
DWIDTH 9 0
BBX 7 10 1 0
BITMAP
0C
1C
2C
4C
8C
FE
FE
0C
0C
0C
ENDCHAR
STARTCHAR five
ENCODING 53
SWIDTH 602 0
DWIDTH 9 0
BBX 7 10 1 0
BITMAP
FE
FE
80
80
FC
0E
06
06
CC
78
ENDCHAR
STARTCHAR six
ENCODING 54
SWIDTH 602 0
DWIDTH 9 0
BBX 7 10 1 0
BITMAP
3C
66
C0
D8
EC
C6
C6
C6
6C
38
ENDCHAR
STARTCHAR seven
ENCODING 55
SWIDTH 602 0
DWIDTH 9 0
BBX 7 10 1 0
BITMAP
FE
FE
06
0C
18
30
30
60
60
60
ENDCHAR
STARTCHAR eight
ENCODING 56
SWIDTH 602 0
DWIDTH 9 0
BBX 7 10 1 0
BITMAP
7C
C6
C6
E4
78
7C
CE
C6
C6
7C
ENDCHAR
STARTCHAR nine
ENCODING 57
SWIDTH 602 0
DWIDTH 9 0
BBX 7 10 1 0
BITMAP
38
6C
C6
C6
C6
6E
36
06
CC
78
ENDCHAR
STARTCHAR colon
ENCODING 58
SWIDTH 602 0
DWIDTH 9 0
BBX 2 7 3 0
BITMAP
C0
C0
00
00
00
C0
C0
ENDCHAR
STARTCHAR semicolon
ENCODING 59
SWIDTH 602 0
DWIDTH 9 0
BBX 2 9 3 -2
BITMAP
C0
C0
00
00
00
C0
C0
40
80
ENDCHAR
STARTCHAR less
ENCODING 60
SWIDTH 602 0
DWIDTH 9 0
BBX 5 7 2 1
BITMAP
18
30
60
C0
60
30
18
ENDCHAR
STARTCHAR equal
ENCODING 61
SWIDTH 602 0
DWIDTH 9 0
BBX 7 3 1 3
BITMAP
FE
00
FE
ENDCHAR
STARTCHAR greater
ENCODING 62
SWIDTH 602 0
DWIDTH 9 0
BBX 5 7 2 1
BITMAP
C0
60
30
18
30
60
C0
ENDCHAR
STARTCHAR question
ENCODING 63
SWIDTH 602 0
DWIDTH 9 0
BBX 7 10 1 0
BITMAP
7C
C6
06
06
1C
30
30
00
30
30
ENDCHAR
STARTCHAR at
ENCODING 64
SWIDTH 602 0
DWIDTH 9 0
BBX 9 10 0 0
BITMAP
1E00
6300
4300
8F00
9B00
9B00
9B00
4D80
6000
1E00
ENDCHAR
STARTCHAR A
ENCODING 65
SWIDTH 602 0
DWIDTH 9 0
BBX 8 10 1 0
BITMAP
18
18
2C
2C
66
46
FE
C3
C3
C3
ENDCHAR
STARTCHAR B
ENCODING 66
SWIDTH 602 0
DWIDTH 9 0
BBX 6 10 2 0
BITMAP
F8
CC
CC
C8
F0
C8
CC
CC
CC
F8
ENDCHAR
STARTCHAR C
ENCODING 67
SWIDTH 602 0
DWIDTH 9 0
BBX 7 10 1 0
BITMAP
3C
66
C0
C0
C0
C0
C0
C0
66
3C
ENDCHAR
STARTCHAR D
ENCODING 68
SWIDTH 602 0
DWIDTH 9 0
BBX 7 10 1 0
BITMAP
F8
CC
C6
C6
C6
C6
C6
C6
CC
F8
ENDCHAR
STARTCHAR E
ENCODING 69
SWIDTH 602 0
DWIDTH 9 0
BBX 6 10 2 0
BITMAP
FC
C0
C0
C0
F8
C0
C0
C0
C0
FC
ENDCHAR
STARTCHAR F
ENCODING 70
SWIDTH 602 0
DWIDTH 9 0
BBX 6 10 2 0
BITMAP
FC
C0
C0
C0
C0
FC
C0
C0
C0
C0
ENDCHAR
STARTCHAR G
ENCODING 71
SWIDTH 602 0
DWIDTH 9 0
BBX 7 10 1 0
BITMAP
3C
66
C0
C0
C0
C6
C6
C6
66
3E
ENDCHAR
STARTCHAR H
ENCODING 72
SWIDTH 602 0
DWIDTH 9 0
BBX 7 10 1 0
BITMAP
C6
C6
C6
C6
FE
C6
C6
C6
C6
C6
ENDCHAR
STARTCHAR I
ENCODING 73
SWIDTH 602 0
DWIDTH 9 0
BBX 6 10 2 0
BITMAP
FC
30
30
30
30
30
30
30
30
FC
ENDCHAR
STARTCHAR J
ENCODING 74
SWIDTH 602 0
DWIDTH 9 0
BBX 6 10 1 0
BITMAP
7C
0C
0C
0C
0C
0C
0C
0C
18
F0
ENDCHAR
STARTCHAR K
ENCODING 75
SWIDTH 602 0
DWIDTH 9 0
BBX 7 10 1 0
BITMAP
C6
CC
C8
D0
F0
D8
CC
CC
C6
C6
ENDCHAR
STARTCHAR L
ENCODING 76
SWIDTH 602 0
DWIDTH 9 0
BBX 6 10 2 0
BITMAP
C0
C0
C0
C0
C0
C0
C0
C0
C0
FC
ENDCHAR
STARTCHAR M
ENCODING 77
SWIDTH 602 0
DWIDTH 9 0
BBX 8 10 1 0
BITMAP
C3
C3
E7
E7
EF
BB
BB
93
83
83
ENDCHAR
STARTCHAR N
ENCODING 78
SWIDTH 602 0
DWIDTH 9 0
BBX 7 10 1 0
BITMAP
C2
E2
E2
B2
B2
9A
9A
8E
8E
86
ENDCHAR
STARTCHAR O
ENCODING 79
SWIDTH 602 0
DWIDTH 9 0
BBX 8 10 1 0
BITMAP
3C
66
C3
C3
C3
C3
C3
C3
66
3C
ENDCHAR
STARTCHAR P
ENCODING 80
SWIDTH 602 0
DWIDTH 9 0
BBX 7 10 1 0
BITMAP
FC
C6
C6
C6
CC
F8
C0
C0
C0
C0
ENDCHAR
STARTCHAR Q
ENCODING 81
SWIDTH 602 0
DWIDTH 9 0
BBX 8 12 1 -2
BITMAP
3C
66
C3
C3
C3
C3
C3
C3
66
3C
06
03
ENDCHAR
STARTCHAR R
ENCODING 82
SWIDTH 602 0
DWIDTH 9 0
BBX 7 10 1 0
BITMAP
F8
CC
CC
CC
D8
F0
CC
CC
C6
C6
ENDCHAR
STARTCHAR S
ENCODING 83
SWIDTH 602 0
DWIDTH 9 0
BBX 7 10 1 0
BITMAP
7C
C6
C0
E0
78
1C
0E
06
C6
7C
ENDCHAR
STARTCHAR T
ENCODING 84
SWIDTH 602 0
DWIDTH 9 0
BBX 8 10 1 0
BITMAP
FF
18
18
18
18
18
18
18
18
18
ENDCHAR
STARTCHAR U
ENCODING 85
SWIDTH 602 0
DWIDTH 9 0
BBX 7 10 1 0
BITMAP
C6
C6
C6
C6
C6
C6
C6
C6
6C
38
ENDCHAR
STARTCHAR V
ENCODING 86
SWIDTH 602 0
DWIDTH 9 0
BBX 8 10 1 0
BITMAP
C3
C3
C3
62
62
66
34
34
18
18
ENDCHAR
STARTCHAR W
ENCODING 87
SWIDTH 602 0
DWIDTH 9 0
BBX 8 10 1 0
BITMAP
C3
C3
DB
DB
DB
DB
66
66
66
66
ENDCHAR
STARTCHAR X
ENCODING 88
SWIDTH 602 0
DWIDTH 9 0
BBX 7 10 1 0
BITMAP
C6
C6
C6
64
38
38
4C
C6
C6
C6
ENDCHAR
STARTCHAR Y
ENCODING 89
SWIDTH 602 0
DWIDTH 9 0
BBX 8 10 1 0
BITMAP
C3
C3
62
66
34
18
18
18
18
18
ENDCHAR
STARTCHAR Z
ENCODING 90
SWIDTH 602 0
DWIDTH 9 0
BBX 7 10 1 0
BITMAP
FE
06
0C
18
18
30
60
60
C0
FE
ENDCHAR
STARTCHAR bracketleft
ENCODING 91
SWIDTH 602 0
DWIDTH 9 0
BBX 5 12 2 -1
BITMAP
F8
C0
C0
C0
C0
C0
C0
C0
C0
C0
C0
F8
ENDCHAR
STARTCHAR backslash
ENCODING 92
SWIDTH 602 0
DWIDTH 9 0
BBX 7 12 1 -1
BITMAP
C0
C0
60
60
30
30
18
18
0C
0C
06
06
ENDCHAR
STARTCHAR bracketright
ENCODING 93
SWIDTH 602 0
DWIDTH 9 0
BBX 5 12 2 -1
BITMAP
F8
18
18
18
18
18
18
18
18
18
18
F8
ENDCHAR
STARTCHAR asciicircum
ENCODING 94
SWIDTH 602 0
DWIDTH 9 0
BBX 6 7 2 3
BITMAP
30
30
78
48
CC
84
84
ENDCHAR
STARTCHAR underscore
ENCODING 95
SWIDTH 602 0
DWIDTH 9 0
BBX 9 1 0 -1
BITMAP
FF80
ENDCHAR
STARTCHAR grave
ENCODING 96
SWIDTH 602 0
DWIDTH 9 0
BBX 4 2 2 9
BITMAP
C0
30
ENDCHAR
STARTCHAR a
ENCODING 97
SWIDTH 602 0
DWIDTH 9 0
BBX 8 8 1 0
BITMAP
7C
06
06
7E
C6
C6
CE
77
ENDCHAR
STARTCHAR b
ENCODING 98
SWIDTH 602 0
DWIDTH 9 0
BBX 7 11 1 0
BITMAP
C0
C0
C0
D8
EC
C6
C6
C6
C6
CC
F8
ENDCHAR
STARTCHAR c
ENCODING 99
SWIDTH 602 0
DWIDTH 9 0
BBX 7 8 1 0
BITMAP
3C
66
C0
C0
C0
C0
62
3C
ENDCHAR
STARTCHAR d
ENCODING 100
SWIDTH 602 0
DWIDTH 9 0
BBX 7 11 1 0
BITMAP
06
06
06
3E
66
C6
C6
C6
C6
6E
36
ENDCHAR
STARTCHAR e
ENCODING 101
SWIDTH 602 0
DWIDTH 9 0
BBX 7 8 1 0
BITMAP
3C
66
C6
FE
C0
C0
62
3C
ENDCHAR
STARTCHAR f
ENCODING 102
SWIDTH 602 0
DWIDTH 9 0
BBX 7 11 1 0
BITMAP
1E
30
30
30
FE
30
30
30
30
30
30
ENDCHAR
STARTCHAR g
ENCODING 103
SWIDTH 602 0
DWIDTH 9 0
BBX 7 10 1 -2
BITMAP
3E
66
C6
C6
C6
6E
36
06
CC
78
ENDCHAR
STARTCHAR h
ENCODING 104
SWIDTH 602 0
DWIDTH 9 0
BBX 7 11 1 0
BITMAP
C0
C0
C0
DC
EE
C6
C6
C6
C6
C6
C6
ENDCHAR
STARTCHAR i
ENCODING 105
SWIDTH 602 0
DWIDTH 9 0
BBX 5 11 1 0
BITMAP
18
18
00
F8
18
18
18
18
18
18
18
ENDCHAR
STARTCHAR j
ENCODING 106
SWIDTH 602 0
DWIDTH 9 0
BBX 6 13 1 -2
BITMAP
0C
0C
00
7C
0C
0C
0C
0C
0C
0C
0C
0C
F8
ENDCHAR
STARTCHAR k
ENCODING 107
SWIDTH 602 0
DWIDTH 9 0
BBX 8 11 1 0
BITMAP
C0
C0
C0
C6
C4
C8
F0
D8
CC
C6
C7
ENDCHAR
STARTCHAR l
ENCODING 108
SWIDTH 602 0
DWIDTH 9 0
BBX 5 11 1 0
BITMAP
F8
18
18
18
18
18
18
18
18
18
18
ENDCHAR
STARTCHAR m
ENCODING 109
SWIDTH 602 0
DWIDTH 9 0
BBX 7 8 1 0
BITMAP
AC
D6
D6
D6
D6
D6
D6
D6
ENDCHAR
STARTCHAR n
ENCODING 110
SWIDTH 602 0
DWIDTH 9 0
BBX 7 8 1 0
BITMAP
DC
EE
C6
C6
C6
C6
C6
C6
ENDCHAR
STARTCHAR o
ENCODING 111
SWIDTH 602 0
DWIDTH 9 0
BBX 7 8 1 0
BITMAP
38
6C
C6
C6
C6
C6
6C
38
ENDCHAR
STARTCHAR p
ENCODING 112
SWIDTH 602 0
DWIDTH 9 0
BBX 7 10 1 -2
BITMAP
D8
EC
C6
C6
C6
C6
CC
F8
C0
C0
ENDCHAR
STARTCHAR q
ENCODING 113
SWIDTH 602 0
DWIDTH 9 0
BBX 7 10 1 -2
BITMAP
3E
66
C6
C6
C6
C6
6E
36
06
06
ENDCHAR
STARTCHAR r
ENCODING 114
SWIDTH 602 0
DWIDTH 9 0
BBX 6 8 2 0
BITMAP
CC
DC
E4
C0
C0
C0
C0
C0
ENDCHAR
STARTCHAR s
ENCODING 115
SWIDTH 602 0
DWIDTH 9 0
BBX 7 8 1 0
BITMAP
7C
C6
C0
F8
3E
06
C6
7C
ENDCHAR
STARTCHAR t
ENCODING 116
SWIDTH 602 0
DWIDTH 9 0
BBX 7 10 1 0
BITMAP
30
30
FE
30
30
30
30
30
30
1E
ENDCHAR
STARTCHAR u
ENCODING 117
SWIDTH 602 0
DWIDTH 9 0
BBX 7 8 1 0
BITMAP
C6
C6
C6
C6
C6
C6
EE
76
ENDCHAR
STARTCHAR v
ENCODING 118
SWIDTH 602 0
DWIDTH 9 0
BBX 7 8 1 0
BITMAP
C6
C6
C6
6C
6C
68
38
30
ENDCHAR
STARTCHAR w
ENCODING 119
SWIDTH 602 0
DWIDTH 9 0
BBX 8 8 1 0
BITMAP
C1
C1
C9
DD
DD
66
66
66
ENDCHAR
STARTCHAR x
ENCODING 120
SWIDTH 602 0
DWIDTH 9 0
BBX 7 8 1 0
BITMAP
C6
C6
64
38
38
4C
C6
C6
ENDCHAR
STARTCHAR y
ENCODING 121
SWIDTH 602 0
DWIDTH 9 0
BBX 7 10 1 -2
BITMAP
C6
C6
C6
6C
6C
38
30
30
60
60
ENDCHAR
STARTCHAR z
ENCODING 122
SWIDTH 602 0
DWIDTH 9 0
BBX 7 8 1 0
BITMAP
FE
06
0C
18
30
60
C0
FE
ENDCHAR
STARTCHAR braceleft
ENCODING 123
SWIDTH 602 0
DWIDTH 9 0
BBX 6 12 2 -1
BITMAP
3C
60
60
30
10
E0
10
30
60
60
60
3C
ENDCHAR
STARTCHAR bar
ENCODING 124
SWIDTH 602 0
DWIDTH 9 0
BBX 2 12 4 -1
BITMAP
C0
C0
C0
C0
C0
C0
C0
C0
C0
C0
C0
C0
ENDCHAR
STARTCHAR braceright
ENCODING 125
SWIDTH 602 0
DWIDTH 9 0
BBX 6 12 1 -1
BITMAP
F0
18
18
30
20
1C
20
30
18
18
18
F0
ENDCHAR
STARTCHAR asciitilde
ENCODING 126
SWIDTH 602 0
DWIDTH 9 0
BBX 7 3 1 3
BITMAP
72
BA
9C
ENDCHAR
STARTCHAR space
ENCODING 160
SWIDTH 602 0
DWIDTH 9 0
BBX 0 0 0 0
BITMAP
ENDCHAR
STARTCHAR exclamdown
ENCODING 161
SWIDTH 602 0
DWIDTH 9 0
BBX 2 10 3 -2
BITMAP
C0
C0
00
80
C0
C0
C0
C0
C0
C0
ENDCHAR
STARTCHAR cent
ENCODING 162
SWIDTH 602 0
DWIDTH 9 0
BBX 7 12 1 -1
BITMAP
08
08
3C
6A
C8
C8
C8
C8
68
3E
08
08
ENDCHAR
STARTCHAR sterling
ENCODING 163
SWIDTH 602 0
DWIDTH 9 0
BBX 7 10 1 0
BITMAP
1C
32
30
30
FC
30
30
30
60
FE
ENDCHAR
STARTCHAR currency
ENCODING 164
SWIDTH 602 0
DWIDTH 9 0
BBX 9 10 0 0
BITMAP
8080
4100
3E00
3600
6300
6300
3600
3E00
4100
8080
ENDCHAR
STARTCHAR yen
ENCODING 165
SWIDTH 602 0
DWIDTH 9 0
BBX 8 10 1 0
BITMAP
C3
C3
62
66
34
7E
18
7E
18
18
ENDCHAR
STARTCHAR brokenbar
ENCODING 166
SWIDTH 602 0
DWIDTH 9 0
BBX 2 12 4 -1
BITMAP
C0
C0
C0
C0
C0
00
00
C0
C0
C0
C0
C0
ENDCHAR
STARTCHAR section
ENCODING 167
SWIDTH 602 0
DWIDTH 9 0
BBX 7 11 1 -1
BITMAP
7C
C6
C0
78
CC
C6
66
3C
06
C6
7C
ENDCHAR
STARTCHAR dieresis
ENCODING 168
SWIDTH 602 0
DWIDTH 9 0
BBX 3 2 3 9
BITMAP
A0
A0
ENDCHAR
STARTCHAR copyright
ENCODING 169
SWIDTH 602 0
DWIDTH 9 0
BBX 8 10 1 0
BITMAP
3C
42
9D
B1
B1
B1
B1
9D
42
3C
ENDCHAR
STARTCHAR ordfeminine
ENCODING 170
SWIDTH 602 0
DWIDTH 9 0
BBX 7 7 1 3
BITMAP
78
0C
0C
7C
CC
DC
6E
ENDCHAR
STARTCHAR guillemotleft
ENCODING 171
SWIDTH 602 0
DWIDTH 9 0
BBX 8 5 1 2
BITMAP
33
66
CC
66
33
ENDCHAR
STARTCHAR logicalnot
ENCODING 172
SWIDTH 602 0
DWIDTH 9 0
BBX 7 3 1 3
BITMAP
FE
02
02
ENDCHAR
STARTCHAR hyphen
ENCODING 173
SWIDTH 602 0
DWIDTH 9 0
BBX 4 2 3 3
BITMAP
F0
F0
ENDCHAR
STARTCHAR registered
ENCODING 174
SWIDTH 602 0
DWIDTH 9 0
BBX 8 8 1 2
BITMAP
3C
42
B9
B5
B9
B5
42
3C
ENDCHAR
STARTCHAR macron
ENCODING 175
SWIDTH 602 0
DWIDTH 9 0
BBX 3 1 3 10
BITMAP
E0
ENDCHAR
STARTCHAR degree
ENCODING 176
SWIDTH 602 0
DWIDTH 9 0
BBX 5 4 2 6
BITMAP
70
D8
D8
70
ENDCHAR
STARTCHAR plusminus
ENCODING 177
SWIDTH 602 0
DWIDTH 9 0
BBX 7 7 1 1
BITMAP
10
10
FE
10
10
00
FE
ENDCHAR
STARTCHAR twosuperior
ENCODING 178
SWIDTH 602 0
DWIDTH 9 0
BBX 5 7 2 3
BITMAP
F0
18
18
30
60
C0
F8
ENDCHAR
STARTCHAR threesuperior
ENCODING 179
SWIDTH 602 0
DWIDTH 9 0
BBX 5 7 2 3
BITMAP
F0
18
18
70
18
18
F0
ENDCHAR
STARTCHAR acute
ENCODING 180
SWIDTH 602 0
DWIDTH 9 0
BBX 4 2 3 9
BITMAP
30
C0
ENDCHAR
STARTCHAR mu
ENCODING 181
SWIDTH 602 0
DWIDTH 9 0
BBX 7 10 1 -2
BITMAP
C6
C6
C6
C6
C6
C6
EE
F6
C0
C0
ENDCHAR
STARTCHAR paragraph
ENCODING 182
SWIDTH 602 0
DWIDTH 9 0
BBX 6 11 2 -1
BITMAP
7C
F4
F4
F4
F4
74
14
14
14
14
14
ENDCHAR
STARTCHAR periodcentered
ENCODING 183
SWIDTH 602 0
DWIDTH 9 0
BBX 3 2 3 3
BITMAP
E0
E0
ENDCHAR
STARTCHAR cedilla
ENCODING 184
SWIDTH 602 0
DWIDTH 9 0
BBX 3 2 2 -2
BITMAP
20
C0
ENDCHAR
STARTCHAR onesuperior
ENCODING 185
SWIDTH 602 0
DWIDTH 9 0
BBX 6 7 1 3
BITMAP
70
B0
30
30
30
30
FC
ENDCHAR
STARTCHAR ordmasculine
ENCODING 186
SWIDTH 602 0
DWIDTH 9 0
BBX 7 7 1 3
BITMAP
38
6C
C6
C6
C6
6C
38
ENDCHAR
STARTCHAR guillemotright
ENCODING 187
SWIDTH 602 0
DWIDTH 9 0
BBX 8 5 0 2
BITMAP
CC
66
33
66
CC
ENDCHAR
STARTCHAR onequarter
ENCODING 188
SWIDTH 602 0
DWIDTH 9 0
BBX 9 10 0 0
BITMAP
6400
E400
6800
6800
7300
7700
2B00
2F80
4300
4300
ENDCHAR
STARTCHAR onehalf
ENCODING 189
SWIDTH 602 0
DWIDTH 9 0
BBX 9 10 0 0
BITMAP
6400
E400
6800
6800
7000
7700
1180
1300
2600
2780
ENDCHAR
STARTCHAR threequarters
ENCODING 190
SWIDTH 602 0
DWIDTH 9 0
BBX 9 10 0 0
BITMAP
E400
6400
C800
6800
D300
1700
2B00
2F80
4300
4300
ENDCHAR
STARTCHAR questiondown
ENCODING 191
SWIDTH 602 0
DWIDTH 9 0
BBX 7 10 1 -2
BITMAP
18
18
00
18
18
70
C0
C0
C6
7C
ENDCHAR
STARTCHAR Agrave
ENCODING 192
SWIDTH 602 0
DWIDTH 9 0
BBX 8 13 1 0
BITMAP
30
0C
00
18
18
2C
2C
66
46
FE
C3
C3
C3
ENDCHAR
STARTCHAR Aacute
ENCODING 193
SWIDTH 602 0
DWIDTH 9 0
BBX 8 13 1 0
BITMAP
0C
30
00
18
18
2C
2C
66
46
FE
C3
C3
C3
ENDCHAR
STARTCHAR Acircumflex
ENCODING 194
SWIDTH 602 0
DWIDTH 9 0
BBX 8 13 1 0
BITMAP
18
24
00
18
18
2C
2C
66
46
FE
C3
C3
C3
ENDCHAR
STARTCHAR Atilde
ENCODING 195
SWIDTH 602 0
DWIDTH 9 0
BBX 8 13 1 0
BITMAP
1A
2C
00
18
18
2C
2C
66
46
FE
C3
C3
C3
ENDCHAR
STARTCHAR Adieresis
ENCODING 196
SWIDTH 602 0
DWIDTH 9 0
BBX 8 13 1 0
BITMAP
24
24
00
18
18
2C
2C
66
46
FE
C3
C3
C3
ENDCHAR
STARTCHAR Aring
ENCODING 197
SWIDTH 602 0
DWIDTH 9 0
BBX 8 12 1 0
BITMAP
18
24
18
18
2C
2C
66
46
FE
C3
C3
C3
ENDCHAR
STARTCHAR AE
ENCODING 198
SWIDTH 602 0
DWIDTH 9 0
BBX 8 10 0 0
BITMAP
0F
1C
2C
2C
6F
4C
7C
CC
CC
CF
ENDCHAR
STARTCHAR Ccedilla
ENCODING 199
SWIDTH 602 0
DWIDTH 9 0
BBX 7 12 1 -2
BITMAP
3C
66
C0
C0
C0
C0
C0
C0
66
3C
08
30
ENDCHAR
STARTCHAR Egrave
ENCODING 200
SWIDTH 602 0
DWIDTH 9 0
BBX 6 13 2 0
BITMAP
60
18
00
FC
C0
C0
C0
F8
C0
C0
C0
C0
FC
ENDCHAR
STARTCHAR Eacute
ENCODING 201
SWIDTH 602 0
DWIDTH 9 0
BBX 6 13 2 0
BITMAP
18
60
00
FC
C0
C0
C0
F8
C0
C0
C0
C0
FC
ENDCHAR
STARTCHAR Ecircumflex
ENCODING 202
SWIDTH 602 0
DWIDTH 9 0
BBX 6 13 2 0
BITMAP
30
48
00
FC
C0
C0
C0
F8
C0
C0
C0
C0
FC
ENDCHAR
STARTCHAR Edieresis
ENCODING 203
SWIDTH 602 0
DWIDTH 9 0
BBX 6 13 2 0
BITMAP
48
48
00
FC
C0
C0
C0
F8
C0
C0
C0
C0
FC
ENDCHAR
STARTCHAR Igrave
ENCODING 204
SWIDTH 602 0
DWIDTH 9 0
BBX 6 13 2 0
BITMAP
60
18
00
FC
30
30
30
30
30
30
30
30
FC
ENDCHAR
STARTCHAR Iacute
ENCODING 205
SWIDTH 602 0
DWIDTH 9 0
BBX 6 13 2 0
BITMAP
18
60
00
FC
30
30
30
30
30
30
30
30
FC
ENDCHAR
STARTCHAR Icircumflex
ENCODING 206
SWIDTH 602 0
DWIDTH 9 0
BBX 6 13 2 0
BITMAP
30
48
00
FC
30
30
30
30
30
30
30
30
FC
ENDCHAR
STARTCHAR Idieresis
ENCODING 207
SWIDTH 602 0
DWIDTH 9 0
BBX 6 13 2 0
BITMAP
48
48
00
FC
30
30
30
30
30
30
30
30
FC
ENDCHAR
STARTCHAR Eth
ENCODING 208
SWIDTH 602 0
DWIDTH 9 0
BBX 8 10 0 0
BITMAP
7C
66
63
63
FB
63
63
63
66
7C
ENDCHAR
STARTCHAR Ntilde
ENCODING 209
SWIDTH 602 0
DWIDTH 9 0
BBX 7 13 1 0
BITMAP
34
58
00
C2
E2
E2
B2
B2
9A
9A
8E
8E
86
ENDCHAR
STARTCHAR Ograve
ENCODING 210
SWIDTH 602 0
DWIDTH 9 0
BBX 8 13 1 0
BITMAP
30
0C
00
3C
66
C3
C3
C3
C3
C3
C3
66
3C
ENDCHAR
STARTCHAR Oacute
ENCODING 211
SWIDTH 602 0
DWIDTH 9 0
BBX 8 13 1 0
BITMAP
0C
30
00
3C
66
C3
C3
C3
C3
C3
C3
66
3C
ENDCHAR
STARTCHAR Ocircumflex
ENCODING 212
SWIDTH 602 0
DWIDTH 9 0
BBX 8 13 1 0
BITMAP
18
24
00
3C
66
C3
C3
C3
C3
C3
C3
66
3C
ENDCHAR
STARTCHAR Otilde
ENCODING 213
SWIDTH 602 0
DWIDTH 9 0
BBX 8 13 1 0
BITMAP
1A
2C
00
3C
66
C3
C3
C3
C3
C3
C3
66
3C
ENDCHAR
STARTCHAR Odieresis
ENCODING 214
SWIDTH 602 0
DWIDTH 9 0
BBX 8 13 1 0
BITMAP
24
24
00
3C
66
C3
C3
C3
C3
C3
C3
66
3C
ENDCHAR
STARTCHAR multiply
ENCODING 215
SWIDTH 602 0
DWIDTH 9 0
BBX 5 5 2 2
BITMAP
C8
70
20
70
98
ENDCHAR
STARTCHAR Oslash
ENCODING 216
SWIDTH 602 0
DWIDTH 9 0
BBX 8 10 1 0
BITMAP
3D
66
C7
CB
CB
D3
D3
E3
66
BC
ENDCHAR
STARTCHAR Ugrave
ENCODING 217
SWIDTH 602 0
DWIDTH 9 0
BBX 7 13 1 0
BITMAP
60
18
00
C6
C6
C6
C6
C6
C6
C6
C6
6C
38
ENDCHAR
STARTCHAR Uacute
ENCODING 218
SWIDTH 602 0
DWIDTH 9 0
BBX 7 13 1 0
BITMAP
0C
30
00
C6
C6
C6
C6
C6
C6
C6
C6
6C
38
ENDCHAR
STARTCHAR Ucircumflex
ENCODING 219
SWIDTH 602 0
DWIDTH 9 0
BBX 7 13 1 0
BITMAP
18
24
00
C6
C6
C6
C6
C6
C6
C6
C6
6C
38
ENDCHAR
STARTCHAR Udieresis
ENCODING 220
SWIDTH 602 0
DWIDTH 9 0
BBX 7 13 1 0
BITMAP
28
28
00
C6
C6
C6
C6
C6
C6
C6
C6
6C
38
ENDCHAR
STARTCHAR Yacute
ENCODING 221
SWIDTH 602 0
DWIDTH 9 0
BBX 8 13 1 0
BITMAP
0C
30
00
C3
C3
62
66
34
18
18
18
18
18
ENDCHAR
STARTCHAR Thorn
ENCODING 222
SWIDTH 602 0
DWIDTH 9 0
BBX 7 10 1 0
BITMAP
C0
C0
FC
C6
C6
C6
CC
F8
C0
C0
ENDCHAR
STARTCHAR germandbls
ENCODING 223
SWIDTH 602 0
DWIDTH 9 0
BBX 7 11 1 0
BITMAP
78
CC
CC
C8
D8
CC
C6
C6
C6
C6
CC
ENDCHAR
STARTCHAR agrave
ENCODING 224
SWIDTH 602 0
DWIDTH 9 0
BBX 8 11 1 0
BITMAP
30
0C
00
7C
06
06
7E
C6
C6
CE
77
ENDCHAR
STARTCHAR aacute
ENCODING 225
SWIDTH 602 0
DWIDTH 9 0
BBX 8 11 1 0
BITMAP
0C
30
00
7C
06
06
7E
C6
C6
CE
77
ENDCHAR
STARTCHAR acircumflex
ENCODING 226
SWIDTH 602 0
DWIDTH 9 0
BBX 8 11 1 0
BITMAP
18
24
00
7C
06
06
7E
C6
C6
CE
77
ENDCHAR
STARTCHAR atilde
ENCODING 227
SWIDTH 602 0
DWIDTH 9 0
BBX 8 11 1 0
BITMAP
34
58
00
7C
06
06
7E
C6
C6
CE
77
ENDCHAR
STARTCHAR adieresis
ENCODING 228
SWIDTH 602 0
DWIDTH 9 0
BBX 8 11 1 0
BITMAP
28
28
00
7C
06
06
7E
C6
C6
CE
77
ENDCHAR
STARTCHAR aring
ENCODING 229
SWIDTH 602 0
DWIDTH 9 0
BBX 8 11 1 0
BITMAP
18
24
18
7C
06
06
7E
C6
C6
CE
77
ENDCHAR
STARTCHAR ae
ENCODING 230
SWIDTH 602 0
DWIDTH 9 0
BBX 8 8 1 0
BITMAP
76
1B
1B
7F
D8
D8
DD
66
ENDCHAR
STARTCHAR ccedilla
ENCODING 231
SWIDTH 602 0
DWIDTH 9 0
BBX 7 10 1 -2
BITMAP
3C
62
C0
C0
C0
C0
62
3C
08
30
ENDCHAR
STARTCHAR egrave
ENCODING 232
SWIDTH 602 0
DWIDTH 9 0
BBX 7 11 1 0
BITMAP
30
0C
00
3C
66
C6
FE
C0
C0
62
3C
ENDCHAR
STARTCHAR eacute
ENCODING 233
SWIDTH 602 0
DWIDTH 9 0
BBX 7 11 1 0
BITMAP
0C
30
00
3C
66
C6
FE
C0
C0
62
3C
ENDCHAR
STARTCHAR ecircumflex
ENCODING 234
SWIDTH 602 0
DWIDTH 9 0
BBX 7 11 1 0
BITMAP
18
24
00
3C
66
C6
FE
C0
C0
62
3C
ENDCHAR
STARTCHAR edieresis
ENCODING 235
SWIDTH 602 0
DWIDTH 9 0
BBX 7 11 1 0
BITMAP
24
24
00
3C
66
C6
FE
C0
C0
62
3C
ENDCHAR
STARTCHAR igrave
ENCODING 236
SWIDTH 602 0
DWIDTH 9 0
BBX 6 11 1 0
BITMAP
30
0C
00
F8
18
18
18
18
18
18
18
ENDCHAR
STARTCHAR iacute
ENCODING 237
SWIDTH 602 0
DWIDTH 9 0
BBX 6 11 1 0
BITMAP
0C
30
00
F8
18
18
18
18
18
18
18
ENDCHAR
STARTCHAR icircumflex
ENCODING 238
SWIDTH 602 0
DWIDTH 9 0
BBX 6 11 1 0
BITMAP
18
24
00
F8
18
18
18
18
18
18
18
ENDCHAR
STARTCHAR idieresis
ENCODING 239
SWIDTH 602 0
DWIDTH 9 0
BBX 6 11 1 0
BITMAP
24
24
00
F8
18
18
18
18
18
18
18
ENDCHAR
STARTCHAR eth
ENCODING 240
SWIDTH 602 0
DWIDTH 9 0
BBX 7 11 1 0
BITMAP
EC
30
D8
0C
3C
6E
C6
C6
C6
6C
38
ENDCHAR
STARTCHAR ntilde
ENCODING 241
SWIDTH 602 0
DWIDTH 9 0
BBX 7 11 1 0
BITMAP
34
58
00
DC
EE
C6
C6
C6
C6
C6
C6
ENDCHAR
STARTCHAR ograve
ENCODING 242
SWIDTH 602 0
DWIDTH 9 0
BBX 7 11 1 0
BITMAP
60
18
00
38
6C
C6
C6
C6
C6
6C
38
ENDCHAR
STARTCHAR oacute
ENCODING 243
SWIDTH 602 0
DWIDTH 9 0
BBX 7 11 1 0
BITMAP
0C
30
00
38
6C
C6
C6
C6
C6
6C
38
ENDCHAR
STARTCHAR ocircumflex
ENCODING 244
SWIDTH 602 0
DWIDTH 9 0
BBX 7 11 1 0
BITMAP
18
24
00
38
6C
C6
C6
C6
C6
6C
38
ENDCHAR
STARTCHAR otilde
ENCODING 245
SWIDTH 602 0
DWIDTH 9 0
BBX 7 11 1 0
BITMAP
34
58
00
38
6C
C6
C6
C6
C6
6C
38
ENDCHAR
STARTCHAR odieresis
ENCODING 246
SWIDTH 602 0
DWIDTH 9 0
BBX 7 11 1 0
BITMAP
28
28
00
38
6C
C6
C6
C6
C6
6C
38
ENDCHAR
STARTCHAR divide
ENCODING 247
SWIDTH 602 0
DWIDTH 9 0
BBX 7 7 1 1
BITMAP
10
10
00
FE
00
10
10
ENDCHAR
STARTCHAR oslash
ENCODING 248
SWIDTH 602 0
DWIDTH 9 0
BBX 7 8 1 0
BITMAP
3A
6C
CE
D6
D6
E6
6C
B8
ENDCHAR
STARTCHAR ugrave
ENCODING 249
SWIDTH 602 0
DWIDTH 9 0
BBX 7 11 1 0
BITMAP
60
18
00
C6
C6
C6
C6
C6
C6
EE
76
ENDCHAR
STARTCHAR uacute
ENCODING 250
SWIDTH 602 0
DWIDTH 9 0
BBX 7 11 1 0
BITMAP
0C
30
00
C6
C6
C6
C6
C6
C6
EE
76
ENDCHAR
STARTCHAR ucircumflex
ENCODING 251
SWIDTH 602 0
DWIDTH 9 0
BBX 7 11 1 0
BITMAP
18
24
00
C6
C6
C6
C6
C6
C6
EE
76
ENDCHAR
STARTCHAR udieresis
ENCODING 252
SWIDTH 602 0
DWIDTH 9 0
BBX 7 11 1 0
BITMAP
28
28
00
C6
C6
C6
C6
C6
C6
EE
76
ENDCHAR
STARTCHAR yacute
ENCODING 253
SWIDTH 602 0
DWIDTH 9 0
BBX 7 13 1 -2
BITMAP
0C
30
00
C6
C6
C6
6C
6C
38
30
30
60
60
ENDCHAR
STARTCHAR thorn
ENCODING 254
SWIDTH 602 0
DWIDTH 9 0
BBX 7 12 1 -2
BITMAP
C0
C0
D8
EC
C6
C6
C6
C6
CC
F8
C0
C0
ENDCHAR
STARTCHAR ydieresis
ENCODING 255
SWIDTH 602 0
DWIDTH 9 0
BBX 7 13 1 -2
BITMAP
28
28
00
C6
C6
C6
6C
6C
38
30
30
60
60
ENDCHAR
STARTCHAR uni0400
ENCODING 1024
SWIDTH 602 0
DWIDTH 9 0
BBX 6 13 2 0
BITMAP
60
18
00
FC
C0
C0
C0
F8
C0
C0
C0
C0
FC
ENDCHAR
STARTCHAR afii10023
ENCODING 1025
SWIDTH 602 0
DWIDTH 9 0
BBX 6 13 2 0
BITMAP
48
48
00
FC
C0
C0
C0
F8
C0
C0
C0
C0
FC
ENDCHAR
STARTCHAR afii10051
ENCODING 1026
SWIDTH 602 0
DWIDTH 9 0
BBX 8 10 0 0
BITMAP
FE
60
60
6E
77
63
63
63
63
66
ENDCHAR
STARTCHAR afii10052
ENCODING 1027
SWIDTH 602 0
DWIDTH 9 0
BBX 6 13 2 0
BITMAP
18
60
00
FC
C0
C0
C0
C0
C0
C0
C0
C0
C0
ENDCHAR
STARTCHAR afii10053
ENCODING 1028
SWIDTH 602 0
DWIDTH 9 0
BBX 7 10 1 0
BITMAP
3C
66
C0
C0
F8
C0
C0
C0
66
3C
ENDCHAR
STARTCHAR afii10054
ENCODING 1029
SWIDTH 602 0
DWIDTH 9 0
BBX 7 10 1 0
BITMAP
7C
C6
C0
E0
78
1C
0E
06
C6
7C
ENDCHAR
STARTCHAR afii10055
ENCODING 1030
SWIDTH 602 0
DWIDTH 9 0
BBX 6 10 2 0
BITMAP
FC
30
30
30
30
30
30
30
30
FC
ENDCHAR
STARTCHAR afii10056
ENCODING 1031
SWIDTH 602 0
DWIDTH 9 0
BBX 6 13 2 0
BITMAP
48
48
00
FC
30
30
30
30
30
30
30
30
FC
ENDCHAR
STARTCHAR afii10057
ENCODING 1032
SWIDTH 602 0
DWIDTH 9 0
BBX 6 10 1 0
BITMAP
7C
0C
0C
0C
0C
0C
0C
0C
18
F0
ENDCHAR
STARTCHAR afii10058
ENCODING 1033
SWIDTH 602 0
DWIDTH 9 0
BBX 9 10 0 0
BITMAP
7C00
6C00
6C00
6C00
6F00
6D80
6D80
6D80
6D80
CF00
ENDCHAR
STARTCHAR afii10059
ENCODING 1034
SWIDTH 602 0
DWIDTH 9 0
BBX 8 10 1 0
BITMAP
D8
D8
D8
D8
FE
DB
DB
DB
DB
DE
ENDCHAR
STARTCHAR afii10060
ENCODING 1035
SWIDTH 602 0
DWIDTH 9 0
BBX 8 10 0 0
BITMAP
FE
60
60
6E
77
63
63
63
63
63
ENDCHAR
STARTCHAR afii10061
ENCODING 1036
SWIDTH 602 0
DWIDTH 9 0
BBX 7 13 1 0
BITMAP
0C
30
00
C6
CC
C8
D0
F0
D8
CC
CC
C6
C6
ENDCHAR
STARTCHAR afii10062
ENCODING 1038
SWIDTH 602 0
DWIDTH 9 0
BBX 7 13 1 0
BITMAP
6C
38
00
C6
C6
C6
6C
6C
38
38
30
60
C0
ENDCHAR
STARTCHAR afii10145
ENCODING 1039
SWIDTH 602 0
DWIDTH 9 0
BBX 7 12 1 -2
BITMAP
C6
C6
C6
C6
C6
C6
C6
C6
C6
FE
18
18
ENDCHAR
STARTCHAR afii10017
ENCODING 1040
SWIDTH 602 0
DWIDTH 9 0
BBX 8 10 1 0
BITMAP
18
18
2C
2C
66
46
FE
C3
C3
C3
ENDCHAR
STARTCHAR afii10018
ENCODING 1041
SWIDTH 602 0
DWIDTH 9 0
BBX 6 10 2 0
BITMAP
FC
C0
C0
C0
F0
C8
CC
CC
CC
F8
ENDCHAR
STARTCHAR afii10019
ENCODING 1042
SWIDTH 602 0
DWIDTH 9 0
BBX 6 10 2 0
BITMAP
F8
CC
CC
C8
F0
C8
CC
CC
CC
F8
ENDCHAR
STARTCHAR afii10020
ENCODING 1043
SWIDTH 602 0
DWIDTH 9 0
BBX 6 10 2 0
BITMAP
FC
C0
C0
C0
C0
C0
C0
C0
C0
C0
ENDCHAR
STARTCHAR afii10021
ENCODING 1044
SWIDTH 602 0
DWIDTH 9 0
BBX 8 12 1 -2
BITMAP
3E
36
36
36
36
36
36
66
66
FF
C3
C3
ENDCHAR
STARTCHAR afii10022
ENCODING 1045
SWIDTH 602 0
DWIDTH 9 0
BBX 6 10 2 0
BITMAP
FC
C0
C0
C0
F8
C0
C0
C0
C0
FC
ENDCHAR
STARTCHAR afii10024
ENCODING 1046
SWIDTH 602 0
DWIDTH 9 0
BBX 7 10 1 0
BITMAP
D6
D6
D6
7C
38
38
7C
D6
D6
D6
ENDCHAR
STARTCHAR afii10025
ENCODING 1047
SWIDTH 602 0
DWIDTH 9 0
BBX 6 10 2 0
BITMAP
78
CC
0C
18
70
18
0C
0C
CC
78
ENDCHAR
STARTCHAR afii10026
ENCODING 1048
SWIDTH 602 0
DWIDTH 9 0
BBX 7 10 1 0
BITMAP
86
8E
8E
9A
9A
B2
B2
E2
E2
C2
ENDCHAR
STARTCHAR afii10027
ENCODING 1049
SWIDTH 602 0
DWIDTH 9 0
BBX 7 13 1 0
BITMAP
6C
38
00
86
8E
8E
9A
9A
B2
B2
E2
E2
C2
ENDCHAR
STARTCHAR afii10028
ENCODING 1050
SWIDTH 602 0
DWIDTH 9 0
BBX 7 10 1 0
BITMAP
C6
CC
C8
D0
F0
D8
CC
CC
C6
C6
ENDCHAR
STARTCHAR afii10029
ENCODING 1051
SWIDTH 602 0
DWIDTH 9 0
BBX 8 10 0 0
BITMAP
3F
33
33
33
33
33
33
33
63
C3
ENDCHAR
STARTCHAR afii10030
ENCODING 1052
SWIDTH 602 0
DWIDTH 9 0
BBX 8 10 1 0
BITMAP
C3
C3
E7
E7
EF
BB
BB
93
83
83
ENDCHAR
STARTCHAR afii10031
ENCODING 1053
SWIDTH 602 0
DWIDTH 9 0
BBX 7 10 1 0
BITMAP
C6
C6
C6
C6
FE
C6
C6
C6
C6
C6
ENDCHAR
STARTCHAR afii10032
ENCODING 1054
SWIDTH 602 0
DWIDTH 9 0
BBX 8 10 1 0
BITMAP
3C
66
C3
C3
C3
C3
C3
C3
66
3C
ENDCHAR
STARTCHAR afii10033
ENCODING 1055
SWIDTH 602 0
DWIDTH 9 0
BBX 7 10 1 0
BITMAP
FE
C6
C6
C6
C6
C6
C6
C6
C6
C6
ENDCHAR
STARTCHAR afii10034
ENCODING 1056
SWIDTH 602 0
DWIDTH 9 0
BBX 7 10 1 0
BITMAP
FC
C6
C6
C6
CC
F8
C0
C0
C0
C0
ENDCHAR
STARTCHAR afii10035
ENCODING 1057
SWIDTH 602 0
DWIDTH 9 0
BBX 7 10 1 0
BITMAP
3C
66
C0
C0
C0
C0
C0
C0
66
3C
ENDCHAR
STARTCHAR afii10036
ENCODING 1058
SWIDTH 602 0
DWIDTH 9 0
BBX 8 10 1 0
BITMAP
FF
18
18
18
18
18
18
18
18
18
ENDCHAR
STARTCHAR afii10037
ENCODING 1059
SWIDTH 602 0
DWIDTH 9 0
BBX 7 10 1 0
BITMAP
C6
C6
C6
6C
6C
38
38
30
60
C0
ENDCHAR
STARTCHAR afii10038
ENCODING 1060
SWIDTH 602 0
DWIDTH 9 0
BBX 8 10 1 0
BITMAP
18
7E
DB
DB
DB
DB
DB
7E
18
18
ENDCHAR
STARTCHAR afii10039
ENCODING 1061
SWIDTH 602 0
DWIDTH 9 0
BBX 7 10 1 0
BITMAP
C6
C6
C6
64
38
38
4C
C6
C6
C6
ENDCHAR
STARTCHAR afii10040
ENCODING 1062
SWIDTH 602 0
DWIDTH 9 0
BBX 7 12 1 -2
BITMAP
CC
CC
CC
CC
CC
CC
CC
CC
CC
FE
06
06
ENDCHAR
STARTCHAR afii10041
ENCODING 1063
SWIDTH 602 0
DWIDTH 9 0
BBX 7 10 1 0
BITMAP
C6
C6
C6
C6
C6
EE
76
06
06
06
ENDCHAR
STARTCHAR afii10042
ENCODING 1064
SWIDTH 602 0
DWIDTH 9 0
BBX 7 10 1 0
BITMAP
D6
D6
D6
D6
D6
D6
D6
D6
D6
FE
ENDCHAR
STARTCHAR afii10043
ENCODING 1065
SWIDTH 602 0
DWIDTH 9 0
BBX 8 12 1 -2
BITMAP
D6
D6
D6
D6
D6
D6
D6
D6
D6
FF
03
03
ENDCHAR
STARTCHAR afii10044
ENCODING 1066
SWIDTH 602 0
DWIDTH 9 0
BBX 8 10 0 0
BITMAP
E0
60
60
60
7C
66
63
63
63
7E
ENDCHAR
STARTCHAR afii10045
ENCODING 1067
SWIDTH 602 0
DWIDTH 9 0
BBX 8 10 1 0
BITMAP
C3
C3
C3
C3
E3
D3
DB
DB
DB
F3
ENDCHAR
STARTCHAR afii10046
ENCODING 1068
SWIDTH 602 0
DWIDTH 9 0
BBX 7 10 1 0
BITMAP
C0
C0
C0
C0
F8
CC
C6
C6
C6
FC
ENDCHAR
STARTCHAR afii10047
ENCODING 1069
SWIDTH 602 0
DWIDTH 9 0
BBX 7 10 1 0
BITMAP
78
CC
06
06
3E
06
06
06
CC
78
ENDCHAR
STARTCHAR afii10048
ENCODING 1070
SWIDTH 602 0
DWIDTH 9 0
BBX 8 10 1 0
BITMAP
CE
CA
DB
DB
FB
DB
DB
DB
CA
CE
ENDCHAR
STARTCHAR afii10049
ENCODING 1071
SWIDTH 602 0
DWIDTH 9 0
BBX 7 10 1 0
BITMAP
3E
66
66
66
36
1E
66
66
C6
C6
ENDCHAR
STARTCHAR afii10065
ENCODING 1072
SWIDTH 602 0
DWIDTH 9 0
BBX 8 8 1 0
BITMAP
7C
06
06
7E
C6
C6
CE
77
ENDCHAR
STARTCHAR afii10066
ENCODING 1073
SWIDTH 602 0
DWIDTH 9 0
BBX 7 11 1 0
BITMAP
1E
30
60
D8
EC
C6
C6
C6
C6
6C
38
ENDCHAR
STARTCHAR afii10067
ENCODING 1074
SWIDTH 602 0
DWIDTH 9 0
BBX 7 8 1 0
BITMAP
FC
C6
C6
FC
CC
C6
C6
FC
ENDCHAR
STARTCHAR afii10068
ENCODING 1075
SWIDTH 602 0
DWIDTH 9 0
BBX 6 8 2 0
BITMAP
FC
C0
C0
C0
C0
C0
C0
C0
ENDCHAR
STARTCHAR afii10069
ENCODING 1076
SWIDTH 602 0
DWIDTH 9 0
BBX 8 9 1 -1
BITMAP
3E
36
36
36
36
66
66
FF
C3
ENDCHAR
STARTCHAR afii10070
ENCODING 1077
SWIDTH 602 0
DWIDTH 9 0
BBX 7 8 1 0
BITMAP
3C
66
C6
FE
C0
C0
62
3C
ENDCHAR
STARTCHAR afii10072
ENCODING 1078
SWIDTH 602 0
DWIDTH 9 0
BBX 7 8 1 0
BITMAP
D6
D6
7C
38
38
7C
D6
D6
ENDCHAR
STARTCHAR afii10073
ENCODING 1079
SWIDTH 602 0
DWIDTH 9 0
BBX 7 8 1 0
BITMAP
7C
C6
06
3C
0C
06
86
7C
ENDCHAR
STARTCHAR afii10074
ENCODING 1080
SWIDTH 602 0
DWIDTH 9 0
BBX 7 8 1 0
BITMAP
86
8E
9E
9A
B2
F2
E2
C2
ENDCHAR
STARTCHAR afii10075
ENCODING 1081
SWIDTH 602 0
DWIDTH 9 0
BBX 7 11 1 0
BITMAP
6C
38
00
86
8E
9E
9A
B2
F2
E2
C2
ENDCHAR
STARTCHAR afii10076
ENCODING 1082
SWIDTH 602 0
DWIDTH 9 0
BBX 7 8 1 0
BITMAP
C6
C4
C8
F0
D8
CC
C6
C6
ENDCHAR
STARTCHAR afii10077
ENCODING 1083
SWIDTH 602 0
DWIDTH 9 0
BBX 8 8 0 0
BITMAP
3F
33
33
33
33
33
63
C3
ENDCHAR
STARTCHAR afii10078
ENCODING 1084
SWIDTH 602 0
DWIDTH 9 0
BBX 8 8 1 0
BITMAP
C3
E7
E7
EF
BB
BB
93
83
ENDCHAR
STARTCHAR afii10079
ENCODING 1085
SWIDTH 602 0
DWIDTH 9 0
BBX 7 8 1 0
BITMAP
C6
C6
C6
FE
C6
C6
C6
C6
ENDCHAR
STARTCHAR afii10080
ENCODING 1086
SWIDTH 602 0
DWIDTH 9 0
BBX 7 8 1 0
BITMAP
38
6C
C6
C6
C6
C6
6C
38
ENDCHAR
STARTCHAR afii10081
ENCODING 1087
SWIDTH 602 0
DWIDTH 9 0
BBX 7 8 1 0
BITMAP
FE
C6
C6
C6
C6
C6
C6
C6
ENDCHAR
STARTCHAR afii10082
ENCODING 1088
SWIDTH 602 0
DWIDTH 9 0
BBX 7 10 1 -2
BITMAP
D8
EC
C6
C6
C6
C6
CC
F8
C0
C0
ENDCHAR
STARTCHAR afii10083
ENCODING 1089
SWIDTH 602 0
DWIDTH 9 0
BBX 7 8 1 0
BITMAP
3C
66
C0
C0
C0
C0
62
3C
ENDCHAR
STARTCHAR afii10084
ENCODING 1090
SWIDTH 602 0
DWIDTH 9 0
BBX 8 8 1 0
BITMAP
FF
18
18
18
18
18
18
18
ENDCHAR
STARTCHAR afii10085
ENCODING 1091
SWIDTH 602 0
DWIDTH 9 0
BBX 7 10 1 -2
BITMAP
C6
C6
C6
6C
6C
38
30
30
60
60
ENDCHAR
STARTCHAR afii10086
ENCODING 1092
SWIDTH 602 0
DWIDTH 9 0
BBX 8 13 1 -2
BITMAP
18
18
18
7E
DB
DB
DB
DB
DB
DB
7E
18
18
ENDCHAR
STARTCHAR afii10087
ENCODING 1093
SWIDTH 602 0
DWIDTH 9 0
BBX 7 8 1 0
BITMAP
C6
C6
64
38
38
4C
C6
C6
ENDCHAR
STARTCHAR afii10088
ENCODING 1094
SWIDTH 602 0
DWIDTH 9 0
BBX 7 9 1 -1
BITMAP
CC
CC
CC
CC
CC
CC
CC
FE
06
ENDCHAR
STARTCHAR afii10089
ENCODING 1095
SWIDTH 602 0
DWIDTH 9 0
BBX 7 8 1 0
BITMAP
C6
C6
C6
C6
EE
76
06
06
ENDCHAR
STARTCHAR afii10090
ENCODING 1096
SWIDTH 602 0
DWIDTH 9 0
BBX 7 8 1 0
BITMAP
D6
D6
D6
D6
D6
D6
D6
FE
ENDCHAR
STARTCHAR afii10091
ENCODING 1097
SWIDTH 602 0
DWIDTH 9 0
BBX 8 9 1 -1
BITMAP
D6
D6
D6
D6
D6
D6
D6
FF
03
ENDCHAR
STARTCHAR afii10092
ENCODING 1098
SWIDTH 602 0
DWIDTH 9 0
BBX 8 8 0 0
BITMAP
E0
60
60
7C
66
63
63
7E
ENDCHAR
STARTCHAR afii10093
ENCODING 1099
SWIDTH 602 0
DWIDTH 9 0
BBX 8 8 1 0
BITMAP
C3
C3
C3
E3
D3
DB
DB
F3
ENDCHAR
STARTCHAR afii10094
ENCODING 1100
SWIDTH 602 0
DWIDTH 9 0
BBX 7 8 1 0
BITMAP
C0
C0
C0
F8
CC
C6
C6
FC
ENDCHAR
STARTCHAR afii10095
ENCODING 1101
SWIDTH 602 0
DWIDTH 9 0
BBX 7 8 1 0
BITMAP
78
CC
06
3E
06
06
8C
78
ENDCHAR
STARTCHAR afii10096
ENCODING 1102
SWIDTH 602 0
DWIDTH 9 0
BBX 8 8 1 0
BITMAP
CE
CA
DB
FB
DB
DB
CA
CE
ENDCHAR
STARTCHAR afii10097
ENCODING 1103
SWIDTH 602 0
DWIDTH 9 0
BBX 7 8 1 0
BITMAP
7E
C6
C6
66
3E
66
C6
C6
ENDCHAR
STARTCHAR uni0450
ENCODING 1104
SWIDTH 602 0
DWIDTH 9 0
BBX 7 11 1 0
BITMAP
30
0C
00
3C
66
C6
FE
C0
C0
62
3C
ENDCHAR
STARTCHAR afii10071
ENCODING 1105
SWIDTH 602 0
DWIDTH 9 0
BBX 7 11 1 0
BITMAP
24
24
00
3C
66
C6
FE
C0
C0
62
3C
ENDCHAR
STARTCHAR afii10099
ENCODING 1106
SWIDTH 602 0
DWIDTH 9 0
BBX 8 13 0 -2
BITMAP
60
FC
60
6E
77
63
63
63
63
63
63
03
0E
ENDCHAR
STARTCHAR afii10100
ENCODING 1107
SWIDTH 602 0
DWIDTH 9 0
BBX 6 11 2 0
BITMAP
18
60
00
FC
C0
C0
C0
C0
C0
C0
C0
ENDCHAR
STARTCHAR afii10101
ENCODING 1108
SWIDTH 602 0
DWIDTH 9 0
BBX 7 8 1 0
BITMAP
3C
66
C0
F8
C0
C0
62
3C
ENDCHAR
STARTCHAR afii10102
ENCODING 1109
SWIDTH 602 0
DWIDTH 9 0
BBX 7 8 1 0
BITMAP
7C
C6
C0
F8
3E
06
C6
7C
ENDCHAR
STARTCHAR afii10103
ENCODING 1110
SWIDTH 602 0
DWIDTH 9 0
BBX 5 11 1 0
BITMAP
18
18
00
F8
18
18
18
18
18
18
18
ENDCHAR
STARTCHAR afii10104
ENCODING 1111
SWIDTH 602 0
DWIDTH 9 0
BBX 6 11 1 0
BITMAP
24
24
00
F8
18
18
18
18
18
18
18
ENDCHAR
STARTCHAR afii10105
ENCODING 1112
SWIDTH 602 0
DWIDTH 9 0
BBX 6 13 1 -2
BITMAP
0C
0C
00
7C
0C
0C
0C
0C
0C
0C
0C
0C
F8
ENDCHAR
STARTCHAR afii10106
ENCODING 1113
SWIDTH 602 0
DWIDTH 9 0
BBX 9 8 0 0
BITMAP
7C00
6C00
6C00
6F00
6D80
6D80
6D80
CF00
ENDCHAR
STARTCHAR afii10107
ENCODING 1114
SWIDTH 602 0
DWIDTH 9 0
BBX 8 8 1 0
BITMAP
D8
D8
D8
FE
DB
DB
DB
DE
ENDCHAR
STARTCHAR afii10108
ENCODING 1115
SWIDTH 602 0
DWIDTH 9 0
BBX 8 11 0 0
BITMAP
60
FC
60
6E
77
63
63
63
63
63
63
ENDCHAR
STARTCHAR afii10109
ENCODING 1116
SWIDTH 602 0
DWIDTH 9 0
BBX 7 11 1 0
BITMAP
0C
30
00
C6
C4
C8
F0
D8
CC
C6
C6
ENDCHAR
STARTCHAR afii10110
ENCODING 1118
SWIDTH 602 0
DWIDTH 9 0
BBX 7 13 1 -2
BITMAP
6C
38
00
C6
C6
C6
6C
6C
38
30
30
60
60
ENDCHAR
STARTCHAR afii10193
ENCODING 1119
SWIDTH 602 0
DWIDTH 9 0
BBX 7 10 1 -2
BITMAP
C6
C6
C6
C6
C6
C6
C6
FE
18
18
ENDCHAR
STARTCHAR afii10146
ENCODING 1122
SWIDTH 602 0
DWIDTH 9 0
BBX 8 10 0 0
BITMAP
60
F0
60
60
7C
66
63
63
63
7E
ENDCHAR
STARTCHAR afii10194
ENCODING 1123
SWIDTH 602 0
DWIDTH 9 0
BBX 8 11 0 0
BITMAP
60
60
60
F0
60
60
7C
66
63
63
7E
ENDCHAR
STARTCHAR uni0470
ENCODING 1136
SWIDTH 602 0
DWIDTH 9 0
BBX 8 10 1 0
BITMAP
DB
DB
DB
DB
DB
DB
7E
18
18
18
ENDCHAR
STARTCHAR uni0471
ENCODING 1137
SWIDTH 602 0
DWIDTH 9 0
BBX 8 12 1 -2
BITMAP
18
18
9B
DB
DB
DB
DB
DB
DB
7E
18
18
ENDCHAR
STARTCHAR afii10147
ENCODING 1138
SWIDTH 602 0
DWIDTH 9 0
BBX 8 10 1 0
BITMAP
3C
66
C3
C3
FF
C3
C3
C3
66
3C
ENDCHAR
STARTCHAR afii10195
ENCODING 1139
SWIDTH 602 0
DWIDTH 9 0
BBX 7 8 1 0
BITMAP
38
6C
C6
FE
C6
C6
6C
38
ENDCHAR
STARTCHAR afii10148
ENCODING 1140
SWIDTH 602 0
DWIDTH 9 0
BBX 8 10 1 0
BITMAP
C3
C3
C6
64
64
6C
38
38
18
18
ENDCHAR
STARTCHAR afii10196
ENCODING 1141
SWIDTH 602 0
DWIDTH 9 0
BBX 8 8 1 0
BITMAP
C3
C7
C6
6C
6C
68
38
30
ENDCHAR
STARTCHAR afii10050
ENCODING 1168
SWIDTH 602 0
DWIDTH 9 0
BBX 6 12 2 0
BITMAP
0C
0C
FC
C0
C0
C0
C0
C0
C0
C0
C0
C0
ENDCHAR
STARTCHAR afii10098
ENCODING 1169
SWIDTH 602 0
DWIDTH 9 0
BBX 6 9 2 0
BITMAP
0C
FC
C0
C0
C0
C0
C0
C0
C0
ENDCHAR
STARTCHAR uni04AA
ENCODING 1194
SWIDTH 602 0
DWIDTH 9 0
BBX 7 12 1 -2
BITMAP
3C
66
C0
C0
C0
C0
C0
C0
66
3C
08
30
ENDCHAR
STARTCHAR uni04AB
ENCODING 1195
SWIDTH 602 0
DWIDTH 9 0
BBX 7 10 1 -2
BITMAP
3C
62
C0
C0
C0
C0
62
3C
08
30
ENDCHAR
STARTCHAR uni04AE
ENCODING 1198
SWIDTH 602 0
DWIDTH 9 0
BBX 8 10 1 0
BITMAP
C3
C3
62
66
34
18
18
18
18
18
ENDCHAR
STARTCHAR uni04C0
ENCODING 1216
SWIDTH 602 0
DWIDTH 9 0
BBX 6 10 2 0
BITMAP
FC
30
30
30
30
30
30
30
30
FC
ENDCHAR
STARTCHAR uni04D2
ENCODING 1234
SWIDTH 602 0
DWIDTH 9 0
BBX 8 13 1 0
BITMAP
24
24
00
18
18
2C
2C
66
46
FE
C3
C3
C3
ENDCHAR
STARTCHAR uni04D3
ENCODING 1235
SWIDTH 602 0
DWIDTH 9 0
BBX 8 11 1 0
BITMAP
28
28
00
7C
06
06
7E
C6
C6
CE
77
ENDCHAR
STARTCHAR uni04D4
ENCODING 1236
SWIDTH 602 0
DWIDTH 9 0
BBX 8 10 0 0
BITMAP
0F
1C
2C
2C
6F
4C
7C
CC
CC
CF
ENDCHAR
STARTCHAR uni04D5
ENCODING 1237
SWIDTH 602 0
DWIDTH 9 0
BBX 8 8 1 0
BITMAP
76
1B
1B
7F
D8
D8
DD
66
ENDCHAR
STARTCHAR uni04E6
ENCODING 1254
SWIDTH 602 0
DWIDTH 9 0
BBX 8 13 1 0
BITMAP
24
24
00
3C
66
C3
C3
C3
C3
C3
C3
66
3C
ENDCHAR
STARTCHAR uni04E7
ENCODING 1255
SWIDTH 602 0
DWIDTH 9 0
BBX 7 11 1 0
BITMAP
28
28
00
38
6C
C6
C6
C6
C6
6C
38
ENDCHAR
STARTCHAR uni04E8
ENCODING 1256
SWIDTH 602 0
DWIDTH 9 0
BBX 8 10 1 0
BITMAP
3C
66
C3
C3
FF
C3
C3
C3
66
3C
ENDCHAR
STARTCHAR uni04E9
ENCODING 1257
SWIDTH 602 0
DWIDTH 9 0
BBX 7 8 1 0
BITMAP
38
6C
C6
FE
C6
C6
6C
38
ENDCHAR
ENDFONT
